<mxfile host="app.diagrams.net" modified="2024-04-20T18:08:02.421Z" agent="Mozilla/5.0 (Macintosh; Intel Mac OS X 10_15_7) AppleWebKit/537.36 (KHTML, like Gecko) Chrome/124.0.0.0 Safari/537.36" etag="RetT78UQRTkLf1EeeGgW" version="24.2.5" type="github" pages="12">
  <diagram name="1" id="pXnjt5rbPaOtnro5ler8">
    <mxGraphModel dx="995" dy="471" grid="1" gridSize="10" guides="1" tooltips="1" connect="1" arrows="1" fold="1" page="1" pageScale="1" pageWidth="850" pageHeight="1100" math="0" shadow="0">
      <root>
        <mxCell id="0" />
        <mxCell id="1" parent="0" />
        <mxCell id="-45e8LTCC1iXy8uDLBYQ-1" value="" style="whiteSpace=wrap;html=1;aspect=fixed;" vertex="1" parent="1">
          <mxGeometry x="80" y="120" width="40" height="40" as="geometry" />
        </mxCell>
        <mxCell id="-45e8LTCC1iXy8uDLBYQ-2" value="" style="whiteSpace=wrap;html=1;aspect=fixed;" vertex="1" parent="1">
          <mxGeometry x="120" y="120" width="40" height="40" as="geometry" />
        </mxCell>
        <mxCell id="-45e8LTCC1iXy8uDLBYQ-3" value="" style="whiteSpace=wrap;html=1;aspect=fixed;" vertex="1" parent="1">
          <mxGeometry x="160" y="120" width="40" height="40" as="geometry" />
        </mxCell>
        <mxCell id="-45e8LTCC1iXy8uDLBYQ-4" value="" style="whiteSpace=wrap;html=1;aspect=fixed;" vertex="1" parent="1">
          <mxGeometry x="200" y="120" width="40" height="40" as="geometry" />
        </mxCell>
        <mxCell id="-45e8LTCC1iXy8uDLBYQ-5" value="" style="whiteSpace=wrap;html=1;aspect=fixed;" vertex="1" parent="1">
          <mxGeometry x="240" y="120" width="40" height="40" as="geometry" />
        </mxCell>
        <mxCell id="-45e8LTCC1iXy8uDLBYQ-6" value="" style="whiteSpace=wrap;html=1;aspect=fixed;" vertex="1" parent="1">
          <mxGeometry x="280" y="120" width="40" height="40" as="geometry" />
        </mxCell>
        <mxCell id="-45e8LTCC1iXy8uDLBYQ-7" value="" style="whiteSpace=wrap;html=1;aspect=fixed;" vertex="1" parent="1">
          <mxGeometry x="320" y="120" width="40" height="40" as="geometry" />
        </mxCell>
        <mxCell id="-45e8LTCC1iXy8uDLBYQ-8" value="" style="whiteSpace=wrap;html=1;aspect=fixed;" vertex="1" parent="1">
          <mxGeometry x="360" y="120" width="40" height="40" as="geometry" />
        </mxCell>
        <mxCell id="-45e8LTCC1iXy8uDLBYQ-9" value="" style="whiteSpace=wrap;html=1;aspect=fixed;" vertex="1" parent="1">
          <mxGeometry x="400" y="120" width="40" height="40" as="geometry" />
        </mxCell>
        <mxCell id="-45e8LTCC1iXy8uDLBYQ-10" value="" style="whiteSpace=wrap;html=1;aspect=fixed;" vertex="1" parent="1">
          <mxGeometry x="440" y="120" width="40" height="40" as="geometry" />
        </mxCell>
        <mxCell id="-45e8LTCC1iXy8uDLBYQ-13" value="Tamanha = 10" style="text;html=1;align=center;verticalAlign=middle;resizable=0;points=[];autosize=1;strokeColor=none;fillColor=none;" vertex="1" parent="1">
          <mxGeometry x="30" y="10" width="100" height="30" as="geometry" />
        </mxCell>
        <mxCell id="-45e8LTCC1iXy8uDLBYQ-14" value="Fórmula hash: %10 (mod)" style="text;html=1;align=center;verticalAlign=middle;resizable=0;points=[];autosize=1;strokeColor=none;fillColor=none;" vertex="1" parent="1">
          <mxGeometry x="160" y="10" width="160" height="30" as="geometry" />
        </mxCell>
        <mxCell id="-45e8LTCC1iXy8uDLBYQ-16" value="0" style="text;html=1;align=center;verticalAlign=middle;resizable=0;points=[];autosize=1;strokeColor=none;fillColor=none;" vertex="1" parent="1">
          <mxGeometry x="85" y="90" width="30" height="30" as="geometry" />
        </mxCell>
        <mxCell id="-45e8LTCC1iXy8uDLBYQ-17" value="1" style="text;html=1;align=center;verticalAlign=middle;resizable=0;points=[];autosize=1;strokeColor=none;fillColor=none;" vertex="1" parent="1">
          <mxGeometry x="125" y="90" width="30" height="30" as="geometry" />
        </mxCell>
        <mxCell id="-45e8LTCC1iXy8uDLBYQ-18" value="2" style="text;html=1;align=center;verticalAlign=middle;resizable=0;points=[];autosize=1;strokeColor=none;fillColor=none;" vertex="1" parent="1">
          <mxGeometry x="165" y="90" width="30" height="30" as="geometry" />
        </mxCell>
        <mxCell id="-45e8LTCC1iXy8uDLBYQ-19" value="3" style="text;html=1;align=center;verticalAlign=middle;resizable=0;points=[];autosize=1;strokeColor=none;fillColor=none;" vertex="1" parent="1">
          <mxGeometry x="205" y="90" width="30" height="30" as="geometry" />
        </mxCell>
        <mxCell id="-45e8LTCC1iXy8uDLBYQ-20" value="4" style="text;html=1;align=center;verticalAlign=middle;resizable=0;points=[];autosize=1;strokeColor=none;fillColor=none;" vertex="1" parent="1">
          <mxGeometry x="245" y="90" width="30" height="30" as="geometry" />
        </mxCell>
        <mxCell id="-45e8LTCC1iXy8uDLBYQ-21" value="5" style="text;html=1;align=center;verticalAlign=middle;resizable=0;points=[];autosize=1;strokeColor=none;fillColor=none;" vertex="1" parent="1">
          <mxGeometry x="285" y="90" width="30" height="30" as="geometry" />
        </mxCell>
        <mxCell id="-45e8LTCC1iXy8uDLBYQ-22" value="6" style="text;html=1;align=center;verticalAlign=middle;resizable=0;points=[];autosize=1;strokeColor=none;fillColor=none;" vertex="1" parent="1">
          <mxGeometry x="325" y="90" width="30" height="30" as="geometry" />
        </mxCell>
        <mxCell id="-45e8LTCC1iXy8uDLBYQ-23" value="7" style="text;html=1;align=center;verticalAlign=middle;resizable=0;points=[];autosize=1;strokeColor=none;fillColor=none;" vertex="1" parent="1">
          <mxGeometry x="365" y="90" width="30" height="30" as="geometry" />
        </mxCell>
        <mxCell id="-45e8LTCC1iXy8uDLBYQ-24" value="8" style="text;html=1;align=center;verticalAlign=middle;resizable=0;points=[];autosize=1;strokeColor=none;fillColor=none;" vertex="1" parent="1">
          <mxGeometry x="405" y="90" width="30" height="30" as="geometry" />
        </mxCell>
        <mxCell id="-45e8LTCC1iXy8uDLBYQ-25" value="9" style="text;html=1;align=center;verticalAlign=middle;resizable=0;points=[];autosize=1;strokeColor=none;fillColor=none;" vertex="1" parent="1">
          <mxGeometry x="445" y="90" width="30" height="30" as="geometry" />
        </mxCell>
      </root>
    </mxGraphModel>
  </diagram>
  <diagram name="2" id="w4IiJx2JimSU84qf9vUv">
    <mxGraphModel dx="995" dy="471" grid="1" gridSize="10" guides="1" tooltips="1" connect="1" arrows="1" fold="1" page="1" pageScale="1" pageWidth="850" pageHeight="1100" math="0" shadow="0">
      <root>
        <mxCell id="eRRF2trnO9aHd-nQAfRt-0" />
        <mxCell id="eRRF2trnO9aHd-nQAfRt-1" parent="eRRF2trnO9aHd-nQAfRt-0" />
        <mxCell id="eRRF2trnO9aHd-nQAfRt-2" value="" style="whiteSpace=wrap;html=1;aspect=fixed;" vertex="1" parent="eRRF2trnO9aHd-nQAfRt-1">
          <mxGeometry x="80" y="120" width="40" height="40" as="geometry" />
        </mxCell>
        <mxCell id="eRRF2trnO9aHd-nQAfRt-3" value="" style="whiteSpace=wrap;html=1;aspect=fixed;" vertex="1" parent="eRRF2trnO9aHd-nQAfRt-1">
          <mxGeometry x="120" y="120" width="40" height="40" as="geometry" />
        </mxCell>
        <mxCell id="eRRF2trnO9aHd-nQAfRt-4" value="" style="whiteSpace=wrap;html=1;aspect=fixed;" vertex="1" parent="eRRF2trnO9aHd-nQAfRt-1">
          <mxGeometry x="160" y="120" width="40" height="40" as="geometry" />
        </mxCell>
        <mxCell id="eRRF2trnO9aHd-nQAfRt-5" value="" style="whiteSpace=wrap;html=1;aspect=fixed;" vertex="1" parent="eRRF2trnO9aHd-nQAfRt-1">
          <mxGeometry x="200" y="120" width="40" height="40" as="geometry" />
        </mxCell>
        <mxCell id="eRRF2trnO9aHd-nQAfRt-6" value="" style="whiteSpace=wrap;html=1;aspect=fixed;" vertex="1" parent="eRRF2trnO9aHd-nQAfRt-1">
          <mxGeometry x="240" y="120" width="40" height="40" as="geometry" />
        </mxCell>
        <mxCell id="eRRF2trnO9aHd-nQAfRt-7" value="" style="whiteSpace=wrap;html=1;aspect=fixed;" vertex="1" parent="eRRF2trnO9aHd-nQAfRt-1">
          <mxGeometry x="280" y="120" width="40" height="40" as="geometry" />
        </mxCell>
        <mxCell id="eRRF2trnO9aHd-nQAfRt-8" value="" style="whiteSpace=wrap;html=1;aspect=fixed;" vertex="1" parent="eRRF2trnO9aHd-nQAfRt-1">
          <mxGeometry x="320" y="120" width="40" height="40" as="geometry" />
        </mxCell>
        <mxCell id="eRRF2trnO9aHd-nQAfRt-9" value="" style="whiteSpace=wrap;html=1;aspect=fixed;" vertex="1" parent="eRRF2trnO9aHd-nQAfRt-1">
          <mxGeometry x="360" y="120" width="40" height="40" as="geometry" />
        </mxCell>
        <mxCell id="eRRF2trnO9aHd-nQAfRt-10" value="8" style="whiteSpace=wrap;html=1;aspect=fixed;" vertex="1" parent="eRRF2trnO9aHd-nQAfRt-1">
          <mxGeometry x="400" y="120" width="40" height="40" as="geometry" />
        </mxCell>
        <mxCell id="eRRF2trnO9aHd-nQAfRt-11" value="" style="whiteSpace=wrap;html=1;aspect=fixed;" vertex="1" parent="eRRF2trnO9aHd-nQAfRt-1">
          <mxGeometry x="440" y="120" width="40" height="40" as="geometry" />
        </mxCell>
        <mxCell id="eRRF2trnO9aHd-nQAfRt-12" value="Tamanha = 10" style="text;html=1;align=center;verticalAlign=middle;resizable=0;points=[];autosize=1;strokeColor=none;fillColor=none;" vertex="1" parent="eRRF2trnO9aHd-nQAfRt-1">
          <mxGeometry x="30" y="10" width="100" height="30" as="geometry" />
        </mxCell>
        <mxCell id="eRRF2trnO9aHd-nQAfRt-13" value="Fórmula hash: %10 (mod)" style="text;html=1;align=center;verticalAlign=middle;resizable=0;points=[];autosize=1;strokeColor=none;fillColor=none;" vertex="1" parent="eRRF2trnO9aHd-nQAfRt-1">
          <mxGeometry x="160" y="10" width="160" height="30" as="geometry" />
        </mxCell>
        <mxCell id="eRRF2trnO9aHd-nQAfRt-14" value="0" style="text;html=1;align=center;verticalAlign=middle;resizable=0;points=[];autosize=1;strokeColor=none;fillColor=none;" vertex="1" parent="eRRF2trnO9aHd-nQAfRt-1">
          <mxGeometry x="85" y="90" width="30" height="30" as="geometry" />
        </mxCell>
        <mxCell id="eRRF2trnO9aHd-nQAfRt-15" value="1" style="text;html=1;align=center;verticalAlign=middle;resizable=0;points=[];autosize=1;strokeColor=none;fillColor=none;" vertex="1" parent="eRRF2trnO9aHd-nQAfRt-1">
          <mxGeometry x="125" y="90" width="30" height="30" as="geometry" />
        </mxCell>
        <mxCell id="eRRF2trnO9aHd-nQAfRt-16" value="2" style="text;html=1;align=center;verticalAlign=middle;resizable=0;points=[];autosize=1;strokeColor=none;fillColor=none;" vertex="1" parent="eRRF2trnO9aHd-nQAfRt-1">
          <mxGeometry x="165" y="90" width="30" height="30" as="geometry" />
        </mxCell>
        <mxCell id="eRRF2trnO9aHd-nQAfRt-17" value="3" style="text;html=1;align=center;verticalAlign=middle;resizable=0;points=[];autosize=1;strokeColor=none;fillColor=none;" vertex="1" parent="eRRF2trnO9aHd-nQAfRt-1">
          <mxGeometry x="205" y="90" width="30" height="30" as="geometry" />
        </mxCell>
        <mxCell id="eRRF2trnO9aHd-nQAfRt-18" value="4" style="text;html=1;align=center;verticalAlign=middle;resizable=0;points=[];autosize=1;strokeColor=none;fillColor=none;" vertex="1" parent="eRRF2trnO9aHd-nQAfRt-1">
          <mxGeometry x="245" y="90" width="30" height="30" as="geometry" />
        </mxCell>
        <mxCell id="eRRF2trnO9aHd-nQAfRt-19" value="5" style="text;html=1;align=center;verticalAlign=middle;resizable=0;points=[];autosize=1;strokeColor=none;fillColor=none;" vertex="1" parent="eRRF2trnO9aHd-nQAfRt-1">
          <mxGeometry x="285" y="90" width="30" height="30" as="geometry" />
        </mxCell>
        <mxCell id="eRRF2trnO9aHd-nQAfRt-20" value="6" style="text;html=1;align=center;verticalAlign=middle;resizable=0;points=[];autosize=1;strokeColor=none;fillColor=none;" vertex="1" parent="eRRF2trnO9aHd-nQAfRt-1">
          <mxGeometry x="325" y="90" width="30" height="30" as="geometry" />
        </mxCell>
        <mxCell id="eRRF2trnO9aHd-nQAfRt-21" value="7" style="text;html=1;align=center;verticalAlign=middle;resizable=0;points=[];autosize=1;strokeColor=none;fillColor=none;" vertex="1" parent="eRRF2trnO9aHd-nQAfRt-1">
          <mxGeometry x="365" y="90" width="30" height="30" as="geometry" />
        </mxCell>
        <mxCell id="eRRF2trnO9aHd-nQAfRt-22" value="8" style="text;html=1;align=center;verticalAlign=middle;resizable=0;points=[];autosize=1;strokeColor=none;fillColor=none;" vertex="1" parent="eRRF2trnO9aHd-nQAfRt-1">
          <mxGeometry x="405" y="90" width="30" height="30" as="geometry" />
        </mxCell>
        <mxCell id="eRRF2trnO9aHd-nQAfRt-23" value="9" style="text;html=1;align=center;verticalAlign=middle;resizable=0;points=[];autosize=1;strokeColor=none;fillColor=none;" vertex="1" parent="eRRF2trnO9aHd-nQAfRt-1">
          <mxGeometry x="445" y="90" width="30" height="30" as="geometry" />
        </mxCell>
      </root>
    </mxGraphModel>
  </diagram>
  <diagram name="3" id="BmanRB3B4JT6BCScoO_w">
    <mxGraphModel dx="995" dy="471" grid="1" gridSize="10" guides="1" tooltips="1" connect="1" arrows="1" fold="1" page="1" pageScale="1" pageWidth="850" pageHeight="1100" math="0" shadow="0">
      <root>
        <mxCell id="d1Fpfxt9h0-9PbL1ViTu-0" />
        <mxCell id="d1Fpfxt9h0-9PbL1ViTu-1" parent="d1Fpfxt9h0-9PbL1ViTu-0" />
        <mxCell id="d1Fpfxt9h0-9PbL1ViTu-2" value="10" style="whiteSpace=wrap;html=1;aspect=fixed;" vertex="1" parent="d1Fpfxt9h0-9PbL1ViTu-1">
          <mxGeometry x="80" y="120" width="40" height="40" as="geometry" />
        </mxCell>
        <mxCell id="d1Fpfxt9h0-9PbL1ViTu-3" value="" style="whiteSpace=wrap;html=1;aspect=fixed;" vertex="1" parent="d1Fpfxt9h0-9PbL1ViTu-1">
          <mxGeometry x="120" y="120" width="40" height="40" as="geometry" />
        </mxCell>
        <mxCell id="d1Fpfxt9h0-9PbL1ViTu-4" value="" style="whiteSpace=wrap;html=1;aspect=fixed;" vertex="1" parent="d1Fpfxt9h0-9PbL1ViTu-1">
          <mxGeometry x="160" y="120" width="40" height="40" as="geometry" />
        </mxCell>
        <mxCell id="d1Fpfxt9h0-9PbL1ViTu-5" value="23" style="whiteSpace=wrap;html=1;aspect=fixed;" vertex="1" parent="d1Fpfxt9h0-9PbL1ViTu-1">
          <mxGeometry x="200" y="120" width="40" height="40" as="geometry" />
        </mxCell>
        <mxCell id="d1Fpfxt9h0-9PbL1ViTu-6" value="" style="whiteSpace=wrap;html=1;aspect=fixed;" vertex="1" parent="d1Fpfxt9h0-9PbL1ViTu-1">
          <mxGeometry x="240" y="120" width="40" height="40" as="geometry" />
        </mxCell>
        <mxCell id="d1Fpfxt9h0-9PbL1ViTu-7" value="" style="whiteSpace=wrap;html=1;aspect=fixed;" vertex="1" parent="d1Fpfxt9h0-9PbL1ViTu-1">
          <mxGeometry x="280" y="120" width="40" height="40" as="geometry" />
        </mxCell>
        <mxCell id="d1Fpfxt9h0-9PbL1ViTu-8" value="" style="whiteSpace=wrap;html=1;aspect=fixed;" vertex="1" parent="d1Fpfxt9h0-9PbL1ViTu-1">
          <mxGeometry x="320" y="120" width="40" height="40" as="geometry" />
        </mxCell>
        <mxCell id="d1Fpfxt9h0-9PbL1ViTu-9" value="" style="whiteSpace=wrap;html=1;aspect=fixed;" vertex="1" parent="d1Fpfxt9h0-9PbL1ViTu-1">
          <mxGeometry x="360" y="120" width="40" height="40" as="geometry" />
        </mxCell>
        <mxCell id="d1Fpfxt9h0-9PbL1ViTu-10" value="8" style="whiteSpace=wrap;html=1;aspect=fixed;" vertex="1" parent="d1Fpfxt9h0-9PbL1ViTu-1">
          <mxGeometry x="400" y="120" width="40" height="40" as="geometry" />
        </mxCell>
        <mxCell id="d1Fpfxt9h0-9PbL1ViTu-11" value="" style="whiteSpace=wrap;html=1;aspect=fixed;" vertex="1" parent="d1Fpfxt9h0-9PbL1ViTu-1">
          <mxGeometry x="440" y="120" width="40" height="40" as="geometry" />
        </mxCell>
        <mxCell id="d1Fpfxt9h0-9PbL1ViTu-12" value="Tamanha = 10" style="text;html=1;align=center;verticalAlign=middle;resizable=0;points=[];autosize=1;strokeColor=none;fillColor=none;" vertex="1" parent="d1Fpfxt9h0-9PbL1ViTu-1">
          <mxGeometry x="30" y="10" width="100" height="30" as="geometry" />
        </mxCell>
        <mxCell id="d1Fpfxt9h0-9PbL1ViTu-13" value="Fórmula hash: %10 (mod)" style="text;html=1;align=center;verticalAlign=middle;resizable=0;points=[];autosize=1;strokeColor=none;fillColor=none;" vertex="1" parent="d1Fpfxt9h0-9PbL1ViTu-1">
          <mxGeometry x="160" y="10" width="160" height="30" as="geometry" />
        </mxCell>
        <mxCell id="d1Fpfxt9h0-9PbL1ViTu-14" value="0" style="text;html=1;align=center;verticalAlign=middle;resizable=0;points=[];autosize=1;strokeColor=none;fillColor=none;" vertex="1" parent="d1Fpfxt9h0-9PbL1ViTu-1">
          <mxGeometry x="85" y="90" width="30" height="30" as="geometry" />
        </mxCell>
        <mxCell id="d1Fpfxt9h0-9PbL1ViTu-15" value="1" style="text;html=1;align=center;verticalAlign=middle;resizable=0;points=[];autosize=1;strokeColor=none;fillColor=none;" vertex="1" parent="d1Fpfxt9h0-9PbL1ViTu-1">
          <mxGeometry x="125" y="90" width="30" height="30" as="geometry" />
        </mxCell>
        <mxCell id="d1Fpfxt9h0-9PbL1ViTu-16" value="2" style="text;html=1;align=center;verticalAlign=middle;resizable=0;points=[];autosize=1;strokeColor=none;fillColor=none;" vertex="1" parent="d1Fpfxt9h0-9PbL1ViTu-1">
          <mxGeometry x="165" y="90" width="30" height="30" as="geometry" />
        </mxCell>
        <mxCell id="d1Fpfxt9h0-9PbL1ViTu-17" value="3" style="text;html=1;align=center;verticalAlign=middle;resizable=0;points=[];autosize=1;strokeColor=none;fillColor=none;" vertex="1" parent="d1Fpfxt9h0-9PbL1ViTu-1">
          <mxGeometry x="205" y="90" width="30" height="30" as="geometry" />
        </mxCell>
        <mxCell id="d1Fpfxt9h0-9PbL1ViTu-18" value="4" style="text;html=1;align=center;verticalAlign=middle;resizable=0;points=[];autosize=1;strokeColor=none;fillColor=none;" vertex="1" parent="d1Fpfxt9h0-9PbL1ViTu-1">
          <mxGeometry x="245" y="90" width="30" height="30" as="geometry" />
        </mxCell>
        <mxCell id="d1Fpfxt9h0-9PbL1ViTu-19" value="5" style="text;html=1;align=center;verticalAlign=middle;resizable=0;points=[];autosize=1;strokeColor=none;fillColor=none;" vertex="1" parent="d1Fpfxt9h0-9PbL1ViTu-1">
          <mxGeometry x="285" y="90" width="30" height="30" as="geometry" />
        </mxCell>
        <mxCell id="d1Fpfxt9h0-9PbL1ViTu-20" value="6" style="text;html=1;align=center;verticalAlign=middle;resizable=0;points=[];autosize=1;strokeColor=none;fillColor=none;" vertex="1" parent="d1Fpfxt9h0-9PbL1ViTu-1">
          <mxGeometry x="325" y="90" width="30" height="30" as="geometry" />
        </mxCell>
        <mxCell id="d1Fpfxt9h0-9PbL1ViTu-21" value="7" style="text;html=1;align=center;verticalAlign=middle;resizable=0;points=[];autosize=1;strokeColor=none;fillColor=none;" vertex="1" parent="d1Fpfxt9h0-9PbL1ViTu-1">
          <mxGeometry x="365" y="90" width="30" height="30" as="geometry" />
        </mxCell>
        <mxCell id="d1Fpfxt9h0-9PbL1ViTu-22" value="8" style="text;html=1;align=center;verticalAlign=middle;resizable=0;points=[];autosize=1;strokeColor=none;fillColor=none;" vertex="1" parent="d1Fpfxt9h0-9PbL1ViTu-1">
          <mxGeometry x="405" y="90" width="30" height="30" as="geometry" />
        </mxCell>
        <mxCell id="d1Fpfxt9h0-9PbL1ViTu-23" value="9" style="text;html=1;align=center;verticalAlign=middle;resizable=0;points=[];autosize=1;strokeColor=none;fillColor=none;" vertex="1" parent="d1Fpfxt9h0-9PbL1ViTu-1">
          <mxGeometry x="445" y="90" width="30" height="30" as="geometry" />
        </mxCell>
      </root>
    </mxGraphModel>
  </diagram>
  <diagram name="4" id="N7ndXVCBaC7HZ_aRtgxU">
    <mxGraphModel dx="995" dy="471" grid="1" gridSize="10" guides="1" tooltips="1" connect="1" arrows="1" fold="1" page="1" pageScale="1" pageWidth="850" pageHeight="1100" math="0" shadow="0">
      <root>
        <mxCell id="nnIbvz5sAtDmy_x9S53R-0" />
        <mxCell id="nnIbvz5sAtDmy_x9S53R-1" parent="nnIbvz5sAtDmy_x9S53R-0" />
        <mxCell id="nnIbvz5sAtDmy_x9S53R-2" value="10" style="whiteSpace=wrap;html=1;aspect=fixed;" vertex="1" parent="nnIbvz5sAtDmy_x9S53R-1">
          <mxGeometry x="80" y="120" width="40" height="40" as="geometry" />
        </mxCell>
        <mxCell id="nnIbvz5sAtDmy_x9S53R-3" value="21" style="whiteSpace=wrap;html=1;aspect=fixed;" vertex="1" parent="nnIbvz5sAtDmy_x9S53R-1">
          <mxGeometry x="120" y="120" width="40" height="40" as="geometry" />
        </mxCell>
        <mxCell id="nnIbvz5sAtDmy_x9S53R-4" value="" style="whiteSpace=wrap;html=1;aspect=fixed;" vertex="1" parent="nnIbvz5sAtDmy_x9S53R-1">
          <mxGeometry x="160" y="120" width="40" height="40" as="geometry" />
        </mxCell>
        <mxCell id="nnIbvz5sAtDmy_x9S53R-5" value="23" style="whiteSpace=wrap;html=1;aspect=fixed;" vertex="1" parent="nnIbvz5sAtDmy_x9S53R-1">
          <mxGeometry x="200" y="120" width="40" height="40" as="geometry" />
        </mxCell>
        <mxCell id="nnIbvz5sAtDmy_x9S53R-6" value="" style="whiteSpace=wrap;html=1;aspect=fixed;" vertex="1" parent="nnIbvz5sAtDmy_x9S53R-1">
          <mxGeometry x="240" y="120" width="40" height="40" as="geometry" />
        </mxCell>
        <mxCell id="nnIbvz5sAtDmy_x9S53R-7" value="" style="whiteSpace=wrap;html=1;aspect=fixed;" vertex="1" parent="nnIbvz5sAtDmy_x9S53R-1">
          <mxGeometry x="280" y="120" width="40" height="40" as="geometry" />
        </mxCell>
        <mxCell id="nnIbvz5sAtDmy_x9S53R-8" value="" style="whiteSpace=wrap;html=1;aspect=fixed;" vertex="1" parent="nnIbvz5sAtDmy_x9S53R-1">
          <mxGeometry x="320" y="120" width="40" height="40" as="geometry" />
        </mxCell>
        <mxCell id="nnIbvz5sAtDmy_x9S53R-9" value="" style="whiteSpace=wrap;html=1;aspect=fixed;" vertex="1" parent="nnIbvz5sAtDmy_x9S53R-1">
          <mxGeometry x="360" y="120" width="40" height="40" as="geometry" />
        </mxCell>
        <mxCell id="nnIbvz5sAtDmy_x9S53R-10" value="8" style="whiteSpace=wrap;html=1;aspect=fixed;" vertex="1" parent="nnIbvz5sAtDmy_x9S53R-1">
          <mxGeometry x="400" y="120" width="40" height="40" as="geometry" />
        </mxCell>
        <mxCell id="nnIbvz5sAtDmy_x9S53R-11" value="" style="whiteSpace=wrap;html=1;aspect=fixed;" vertex="1" parent="nnIbvz5sAtDmy_x9S53R-1">
          <mxGeometry x="440" y="120" width="40" height="40" as="geometry" />
        </mxCell>
        <mxCell id="nnIbvz5sAtDmy_x9S53R-12" value="Tamanha = 10" style="text;html=1;align=center;verticalAlign=middle;resizable=0;points=[];autosize=1;strokeColor=none;fillColor=none;" vertex="1" parent="nnIbvz5sAtDmy_x9S53R-1">
          <mxGeometry x="30" y="10" width="100" height="30" as="geometry" />
        </mxCell>
        <mxCell id="nnIbvz5sAtDmy_x9S53R-13" value="Fórmula hash: %10 (mod)" style="text;html=1;align=center;verticalAlign=middle;resizable=0;points=[];autosize=1;strokeColor=none;fillColor=none;" vertex="1" parent="nnIbvz5sAtDmy_x9S53R-1">
          <mxGeometry x="160" y="10" width="160" height="30" as="geometry" />
        </mxCell>
        <mxCell id="nnIbvz5sAtDmy_x9S53R-14" value="0" style="text;html=1;align=center;verticalAlign=middle;resizable=0;points=[];autosize=1;strokeColor=none;fillColor=none;" vertex="1" parent="nnIbvz5sAtDmy_x9S53R-1">
          <mxGeometry x="85" y="90" width="30" height="30" as="geometry" />
        </mxCell>
        <mxCell id="nnIbvz5sAtDmy_x9S53R-15" value="1" style="text;html=1;align=center;verticalAlign=middle;resizable=0;points=[];autosize=1;strokeColor=none;fillColor=none;" vertex="1" parent="nnIbvz5sAtDmy_x9S53R-1">
          <mxGeometry x="125" y="90" width="30" height="30" as="geometry" />
        </mxCell>
        <mxCell id="nnIbvz5sAtDmy_x9S53R-16" value="2" style="text;html=1;align=center;verticalAlign=middle;resizable=0;points=[];autosize=1;strokeColor=none;fillColor=none;" vertex="1" parent="nnIbvz5sAtDmy_x9S53R-1">
          <mxGeometry x="165" y="90" width="30" height="30" as="geometry" />
        </mxCell>
        <mxCell id="nnIbvz5sAtDmy_x9S53R-17" value="3" style="text;html=1;align=center;verticalAlign=middle;resizable=0;points=[];autosize=1;strokeColor=none;fillColor=none;" vertex="1" parent="nnIbvz5sAtDmy_x9S53R-1">
          <mxGeometry x="205" y="90" width="30" height="30" as="geometry" />
        </mxCell>
        <mxCell id="nnIbvz5sAtDmy_x9S53R-18" value="4" style="text;html=1;align=center;verticalAlign=middle;resizable=0;points=[];autosize=1;strokeColor=none;fillColor=none;" vertex="1" parent="nnIbvz5sAtDmy_x9S53R-1">
          <mxGeometry x="245" y="90" width="30" height="30" as="geometry" />
        </mxCell>
        <mxCell id="nnIbvz5sAtDmy_x9S53R-19" value="5" style="text;html=1;align=center;verticalAlign=middle;resizable=0;points=[];autosize=1;strokeColor=none;fillColor=none;" vertex="1" parent="nnIbvz5sAtDmy_x9S53R-1">
          <mxGeometry x="285" y="90" width="30" height="30" as="geometry" />
        </mxCell>
        <mxCell id="nnIbvz5sAtDmy_x9S53R-20" value="6" style="text;html=1;align=center;verticalAlign=middle;resizable=0;points=[];autosize=1;strokeColor=none;fillColor=none;" vertex="1" parent="nnIbvz5sAtDmy_x9S53R-1">
          <mxGeometry x="325" y="90" width="30" height="30" as="geometry" />
        </mxCell>
        <mxCell id="nnIbvz5sAtDmy_x9S53R-21" value="7" style="text;html=1;align=center;verticalAlign=middle;resizable=0;points=[];autosize=1;strokeColor=none;fillColor=none;" vertex="1" parent="nnIbvz5sAtDmy_x9S53R-1">
          <mxGeometry x="365" y="90" width="30" height="30" as="geometry" />
        </mxCell>
        <mxCell id="nnIbvz5sAtDmy_x9S53R-22" value="8" style="text;html=1;align=center;verticalAlign=middle;resizable=0;points=[];autosize=1;strokeColor=none;fillColor=none;" vertex="1" parent="nnIbvz5sAtDmy_x9S53R-1">
          <mxGeometry x="405" y="90" width="30" height="30" as="geometry" />
        </mxCell>
        <mxCell id="nnIbvz5sAtDmy_x9S53R-23" value="9" style="text;html=1;align=center;verticalAlign=middle;resizable=0;points=[];autosize=1;strokeColor=none;fillColor=none;" vertex="1" parent="nnIbvz5sAtDmy_x9S53R-1">
          <mxGeometry x="445" y="90" width="30" height="30" as="geometry" />
        </mxCell>
      </root>
    </mxGraphModel>
  </diagram>
  <diagram name="5" id="JA3x-AGxL_WeF_d2XJOY">
    <mxGraphModel dx="995" dy="471" grid="1" gridSize="10" guides="1" tooltips="1" connect="1" arrows="1" fold="1" page="1" pageScale="1" pageWidth="850" pageHeight="1100" math="0" shadow="0">
      <root>
        <mxCell id="uHYaTvdQg783Mq0j64j4-0" />
        <mxCell id="uHYaTvdQg783Mq0j64j4-1" parent="uHYaTvdQg783Mq0j64j4-0" />
        <mxCell id="uHYaTvdQg783Mq0j64j4-2" value="10" style="whiteSpace=wrap;html=1;aspect=fixed;" vertex="1" parent="uHYaTvdQg783Mq0j64j4-1">
          <mxGeometry x="80" y="120" width="40" height="40" as="geometry" />
        </mxCell>
        <mxCell id="uHYaTvdQg783Mq0j64j4-3" value="21" style="whiteSpace=wrap;html=1;aspect=fixed;" vertex="1" parent="uHYaTvdQg783Mq0j64j4-1">
          <mxGeometry x="120" y="120" width="40" height="40" as="geometry" />
        </mxCell>
        <mxCell id="uHYaTvdQg783Mq0j64j4-4" value="12" style="whiteSpace=wrap;html=1;aspect=fixed;" vertex="1" parent="uHYaTvdQg783Mq0j64j4-1">
          <mxGeometry x="160" y="120" width="40" height="40" as="geometry" />
        </mxCell>
        <mxCell id="uHYaTvdQg783Mq0j64j4-5" value="23" style="whiteSpace=wrap;html=1;aspect=fixed;" vertex="1" parent="uHYaTvdQg783Mq0j64j4-1">
          <mxGeometry x="200" y="120" width="40" height="40" as="geometry" />
        </mxCell>
        <mxCell id="uHYaTvdQg783Mq0j64j4-6" value="" style="whiteSpace=wrap;html=1;aspect=fixed;" vertex="1" parent="uHYaTvdQg783Mq0j64j4-1">
          <mxGeometry x="240" y="120" width="40" height="40" as="geometry" />
        </mxCell>
        <mxCell id="uHYaTvdQg783Mq0j64j4-7" value="" style="whiteSpace=wrap;html=1;aspect=fixed;" vertex="1" parent="uHYaTvdQg783Mq0j64j4-1">
          <mxGeometry x="280" y="120" width="40" height="40" as="geometry" />
        </mxCell>
        <mxCell id="uHYaTvdQg783Mq0j64j4-8" value="" style="whiteSpace=wrap;html=1;aspect=fixed;" vertex="1" parent="uHYaTvdQg783Mq0j64j4-1">
          <mxGeometry x="320" y="120" width="40" height="40" as="geometry" />
        </mxCell>
        <mxCell id="uHYaTvdQg783Mq0j64j4-9" value="" style="whiteSpace=wrap;html=1;aspect=fixed;" vertex="1" parent="uHYaTvdQg783Mq0j64j4-1">
          <mxGeometry x="360" y="120" width="40" height="40" as="geometry" />
        </mxCell>
        <mxCell id="uHYaTvdQg783Mq0j64j4-10" value="8" style="whiteSpace=wrap;html=1;aspect=fixed;" vertex="1" parent="uHYaTvdQg783Mq0j64j4-1">
          <mxGeometry x="400" y="120" width="40" height="40" as="geometry" />
        </mxCell>
        <mxCell id="uHYaTvdQg783Mq0j64j4-11" value="" style="whiteSpace=wrap;html=1;aspect=fixed;" vertex="1" parent="uHYaTvdQg783Mq0j64j4-1">
          <mxGeometry x="440" y="120" width="40" height="40" as="geometry" />
        </mxCell>
        <mxCell id="uHYaTvdQg783Mq0j64j4-12" value="Tamanha = 10" style="text;html=1;align=center;verticalAlign=middle;resizable=0;points=[];autosize=1;strokeColor=none;fillColor=none;" vertex="1" parent="uHYaTvdQg783Mq0j64j4-1">
          <mxGeometry x="30" y="10" width="100" height="30" as="geometry" />
        </mxCell>
        <mxCell id="uHYaTvdQg783Mq0j64j4-13" value="Fórmula hash: %10 (mod)" style="text;html=1;align=center;verticalAlign=middle;resizable=0;points=[];autosize=1;strokeColor=none;fillColor=none;" vertex="1" parent="uHYaTvdQg783Mq0j64j4-1">
          <mxGeometry x="160" y="10" width="160" height="30" as="geometry" />
        </mxCell>
        <mxCell id="uHYaTvdQg783Mq0j64j4-14" value="0" style="text;html=1;align=center;verticalAlign=middle;resizable=0;points=[];autosize=1;strokeColor=none;fillColor=none;" vertex="1" parent="uHYaTvdQg783Mq0j64j4-1">
          <mxGeometry x="85" y="90" width="30" height="30" as="geometry" />
        </mxCell>
        <mxCell id="uHYaTvdQg783Mq0j64j4-15" value="1" style="text;html=1;align=center;verticalAlign=middle;resizable=0;points=[];autosize=1;strokeColor=none;fillColor=none;" vertex="1" parent="uHYaTvdQg783Mq0j64j4-1">
          <mxGeometry x="125" y="90" width="30" height="30" as="geometry" />
        </mxCell>
        <mxCell id="uHYaTvdQg783Mq0j64j4-16" value="2" style="text;html=1;align=center;verticalAlign=middle;resizable=0;points=[];autosize=1;strokeColor=none;fillColor=none;" vertex="1" parent="uHYaTvdQg783Mq0j64j4-1">
          <mxGeometry x="165" y="90" width="30" height="30" as="geometry" />
        </mxCell>
        <mxCell id="uHYaTvdQg783Mq0j64j4-17" value="3" style="text;html=1;align=center;verticalAlign=middle;resizable=0;points=[];autosize=1;strokeColor=none;fillColor=none;" vertex="1" parent="uHYaTvdQg783Mq0j64j4-1">
          <mxGeometry x="205" y="90" width="30" height="30" as="geometry" />
        </mxCell>
        <mxCell id="uHYaTvdQg783Mq0j64j4-18" value="4" style="text;html=1;align=center;verticalAlign=middle;resizable=0;points=[];autosize=1;strokeColor=none;fillColor=none;" vertex="1" parent="uHYaTvdQg783Mq0j64j4-1">
          <mxGeometry x="245" y="90" width="30" height="30" as="geometry" />
        </mxCell>
        <mxCell id="uHYaTvdQg783Mq0j64j4-19" value="5" style="text;html=1;align=center;verticalAlign=middle;resizable=0;points=[];autosize=1;strokeColor=none;fillColor=none;" vertex="1" parent="uHYaTvdQg783Mq0j64j4-1">
          <mxGeometry x="285" y="90" width="30" height="30" as="geometry" />
        </mxCell>
        <mxCell id="uHYaTvdQg783Mq0j64j4-20" value="6" style="text;html=1;align=center;verticalAlign=middle;resizable=0;points=[];autosize=1;strokeColor=none;fillColor=none;" vertex="1" parent="uHYaTvdQg783Mq0j64j4-1">
          <mxGeometry x="325" y="90" width="30" height="30" as="geometry" />
        </mxCell>
        <mxCell id="uHYaTvdQg783Mq0j64j4-21" value="7" style="text;html=1;align=center;verticalAlign=middle;resizable=0;points=[];autosize=1;strokeColor=none;fillColor=none;" vertex="1" parent="uHYaTvdQg783Mq0j64j4-1">
          <mxGeometry x="365" y="90" width="30" height="30" as="geometry" />
        </mxCell>
        <mxCell id="uHYaTvdQg783Mq0j64j4-22" value="8" style="text;html=1;align=center;verticalAlign=middle;resizable=0;points=[];autosize=1;strokeColor=none;fillColor=none;" vertex="1" parent="uHYaTvdQg783Mq0j64j4-1">
          <mxGeometry x="405" y="90" width="30" height="30" as="geometry" />
        </mxCell>
        <mxCell id="uHYaTvdQg783Mq0j64j4-23" value="9" style="text;html=1;align=center;verticalAlign=middle;resizable=0;points=[];autosize=1;strokeColor=none;fillColor=none;" vertex="1" parent="uHYaTvdQg783Mq0j64j4-1">
          <mxGeometry x="445" y="90" width="30" height="30" as="geometry" />
        </mxCell>
      </root>
    </mxGraphModel>
  </diagram>
  <diagram name="6" id="GRNKmRTXyVde4qPQ84gH">
    <mxGraphModel dx="995" dy="471" grid="1" gridSize="10" guides="1" tooltips="1" connect="1" arrows="1" fold="1" page="1" pageScale="1" pageWidth="850" pageHeight="1100" math="0" shadow="0">
      <root>
        <mxCell id="W32nW0ovBeFGzSR2-gU1-0" />
        <mxCell id="W32nW0ovBeFGzSR2-gU1-1" parent="W32nW0ovBeFGzSR2-gU1-0" />
        <mxCell id="W32nW0ovBeFGzSR2-gU1-2" value="10" style="whiteSpace=wrap;html=1;aspect=fixed;" vertex="1" parent="W32nW0ovBeFGzSR2-gU1-1">
          <mxGeometry x="80" y="120" width="40" height="40" as="geometry" />
        </mxCell>
        <mxCell id="W32nW0ovBeFGzSR2-gU1-3" value="21" style="whiteSpace=wrap;html=1;aspect=fixed;" vertex="1" parent="W32nW0ovBeFGzSR2-gU1-1">
          <mxGeometry x="120" y="120" width="40" height="40" as="geometry" />
        </mxCell>
        <mxCell id="W32nW0ovBeFGzSR2-gU1-4" value="12" style="whiteSpace=wrap;html=1;aspect=fixed;" vertex="1" parent="W32nW0ovBeFGzSR2-gU1-1">
          <mxGeometry x="160" y="120" width="40" height="40" as="geometry" />
        </mxCell>
        <mxCell id="W32nW0ovBeFGzSR2-gU1-5" value="23" style="whiteSpace=wrap;html=1;aspect=fixed;" vertex="1" parent="W32nW0ovBeFGzSR2-gU1-1">
          <mxGeometry x="200" y="120" width="40" height="40" as="geometry" />
        </mxCell>
        <mxCell id="W32nW0ovBeFGzSR2-gU1-6" value="52" style="whiteSpace=wrap;html=1;aspect=fixed;" vertex="1" parent="W32nW0ovBeFGzSR2-gU1-1">
          <mxGeometry x="240" y="120" width="40" height="40" as="geometry" />
        </mxCell>
        <mxCell id="W32nW0ovBeFGzSR2-gU1-7" value="" style="whiteSpace=wrap;html=1;aspect=fixed;" vertex="1" parent="W32nW0ovBeFGzSR2-gU1-1">
          <mxGeometry x="280" y="120" width="40" height="40" as="geometry" />
        </mxCell>
        <mxCell id="W32nW0ovBeFGzSR2-gU1-8" value="" style="whiteSpace=wrap;html=1;aspect=fixed;" vertex="1" parent="W32nW0ovBeFGzSR2-gU1-1">
          <mxGeometry x="320" y="120" width="40" height="40" as="geometry" />
        </mxCell>
        <mxCell id="W32nW0ovBeFGzSR2-gU1-9" value="" style="whiteSpace=wrap;html=1;aspect=fixed;" vertex="1" parent="W32nW0ovBeFGzSR2-gU1-1">
          <mxGeometry x="360" y="120" width="40" height="40" as="geometry" />
        </mxCell>
        <mxCell id="W32nW0ovBeFGzSR2-gU1-10" value="8" style="whiteSpace=wrap;html=1;aspect=fixed;" vertex="1" parent="W32nW0ovBeFGzSR2-gU1-1">
          <mxGeometry x="400" y="120" width="40" height="40" as="geometry" />
        </mxCell>
        <mxCell id="W32nW0ovBeFGzSR2-gU1-11" value="" style="whiteSpace=wrap;html=1;aspect=fixed;" vertex="1" parent="W32nW0ovBeFGzSR2-gU1-1">
          <mxGeometry x="440" y="120" width="40" height="40" as="geometry" />
        </mxCell>
        <mxCell id="W32nW0ovBeFGzSR2-gU1-12" value="Tamanha = 10" style="text;html=1;align=center;verticalAlign=middle;resizable=0;points=[];autosize=1;strokeColor=none;fillColor=none;" vertex="1" parent="W32nW0ovBeFGzSR2-gU1-1">
          <mxGeometry x="30" y="10" width="100" height="30" as="geometry" />
        </mxCell>
        <mxCell id="W32nW0ovBeFGzSR2-gU1-13" value="Fórmula hash: %10 (mod)" style="text;html=1;align=center;verticalAlign=middle;resizable=0;points=[];autosize=1;strokeColor=none;fillColor=none;" vertex="1" parent="W32nW0ovBeFGzSR2-gU1-1">
          <mxGeometry x="160" y="10" width="160" height="30" as="geometry" />
        </mxCell>
        <mxCell id="W32nW0ovBeFGzSR2-gU1-14" value="0" style="text;html=1;align=center;verticalAlign=middle;resizable=0;points=[];autosize=1;strokeColor=none;fillColor=none;" vertex="1" parent="W32nW0ovBeFGzSR2-gU1-1">
          <mxGeometry x="85" y="90" width="30" height="30" as="geometry" />
        </mxCell>
        <mxCell id="W32nW0ovBeFGzSR2-gU1-15" value="1" style="text;html=1;align=center;verticalAlign=middle;resizable=0;points=[];autosize=1;strokeColor=none;fillColor=none;" vertex="1" parent="W32nW0ovBeFGzSR2-gU1-1">
          <mxGeometry x="125" y="90" width="30" height="30" as="geometry" />
        </mxCell>
        <mxCell id="W32nW0ovBeFGzSR2-gU1-16" value="2" style="text;html=1;align=center;verticalAlign=middle;resizable=0;points=[];autosize=1;strokeColor=none;fillColor=none;" vertex="1" parent="W32nW0ovBeFGzSR2-gU1-1">
          <mxGeometry x="165" y="90" width="30" height="30" as="geometry" />
        </mxCell>
        <mxCell id="W32nW0ovBeFGzSR2-gU1-17" value="3" style="text;html=1;align=center;verticalAlign=middle;resizable=0;points=[];autosize=1;strokeColor=none;fillColor=none;" vertex="1" parent="W32nW0ovBeFGzSR2-gU1-1">
          <mxGeometry x="205" y="90" width="30" height="30" as="geometry" />
        </mxCell>
        <mxCell id="W32nW0ovBeFGzSR2-gU1-18" value="4" style="text;html=1;align=center;verticalAlign=middle;resizable=0;points=[];autosize=1;strokeColor=none;fillColor=none;" vertex="1" parent="W32nW0ovBeFGzSR2-gU1-1">
          <mxGeometry x="245" y="90" width="30" height="30" as="geometry" />
        </mxCell>
        <mxCell id="W32nW0ovBeFGzSR2-gU1-19" value="5" style="text;html=1;align=center;verticalAlign=middle;resizable=0;points=[];autosize=1;strokeColor=none;fillColor=none;" vertex="1" parent="W32nW0ovBeFGzSR2-gU1-1">
          <mxGeometry x="285" y="90" width="30" height="30" as="geometry" />
        </mxCell>
        <mxCell id="W32nW0ovBeFGzSR2-gU1-20" value="6" style="text;html=1;align=center;verticalAlign=middle;resizable=0;points=[];autosize=1;strokeColor=none;fillColor=none;" vertex="1" parent="W32nW0ovBeFGzSR2-gU1-1">
          <mxGeometry x="325" y="90" width="30" height="30" as="geometry" />
        </mxCell>
        <mxCell id="W32nW0ovBeFGzSR2-gU1-21" value="7" style="text;html=1;align=center;verticalAlign=middle;resizable=0;points=[];autosize=1;strokeColor=none;fillColor=none;" vertex="1" parent="W32nW0ovBeFGzSR2-gU1-1">
          <mxGeometry x="365" y="90" width="30" height="30" as="geometry" />
        </mxCell>
        <mxCell id="W32nW0ovBeFGzSR2-gU1-22" value="8" style="text;html=1;align=center;verticalAlign=middle;resizable=0;points=[];autosize=1;strokeColor=none;fillColor=none;" vertex="1" parent="W32nW0ovBeFGzSR2-gU1-1">
          <mxGeometry x="405" y="90" width="30" height="30" as="geometry" />
        </mxCell>
        <mxCell id="W32nW0ovBeFGzSR2-gU1-23" value="9" style="text;html=1;align=center;verticalAlign=middle;resizable=0;points=[];autosize=1;strokeColor=none;fillColor=none;" vertex="1" parent="W32nW0ovBeFGzSR2-gU1-1">
          <mxGeometry x="445" y="90" width="30" height="30" as="geometry" />
        </mxCell>
      </root>
    </mxGraphModel>
  </diagram>
  <diagram name="7" id="W-b4jzlexSCdRDbWxhJV">
    <mxGraphModel dx="995" dy="471" grid="1" gridSize="10" guides="1" tooltips="1" connect="1" arrows="1" fold="1" page="1" pageScale="1" pageWidth="850" pageHeight="1100" math="0" shadow="0">
      <root>
        <mxCell id="Iwr2Q-H5mCCd0UTdNWvm-0" />
        <mxCell id="Iwr2Q-H5mCCd0UTdNWvm-1" parent="Iwr2Q-H5mCCd0UTdNWvm-0" />
        <mxCell id="Iwr2Q-H5mCCd0UTdNWvm-2" value="10" style="whiteSpace=wrap;html=1;aspect=fixed;" vertex="1" parent="Iwr2Q-H5mCCd0UTdNWvm-1">
          <mxGeometry x="80" y="120" width="40" height="40" as="geometry" />
        </mxCell>
        <mxCell id="Iwr2Q-H5mCCd0UTdNWvm-3" value="21" style="whiteSpace=wrap;html=1;aspect=fixed;" vertex="1" parent="Iwr2Q-H5mCCd0UTdNWvm-1">
          <mxGeometry x="120" y="120" width="40" height="40" as="geometry" />
        </mxCell>
        <mxCell id="Iwr2Q-H5mCCd0UTdNWvm-4" value="12" style="whiteSpace=wrap;html=1;aspect=fixed;" vertex="1" parent="Iwr2Q-H5mCCd0UTdNWvm-1">
          <mxGeometry x="160" y="120" width="40" height="40" as="geometry" />
        </mxCell>
        <mxCell id="Iwr2Q-H5mCCd0UTdNWvm-5" value="23" style="whiteSpace=wrap;html=1;aspect=fixed;" vertex="1" parent="Iwr2Q-H5mCCd0UTdNWvm-1">
          <mxGeometry x="200" y="120" width="40" height="40" as="geometry" />
        </mxCell>
        <mxCell id="Iwr2Q-H5mCCd0UTdNWvm-6" value="52" style="whiteSpace=wrap;html=1;aspect=fixed;" vertex="1" parent="Iwr2Q-H5mCCd0UTdNWvm-1">
          <mxGeometry x="240" y="120" width="40" height="40" as="geometry" />
        </mxCell>
        <mxCell id="Iwr2Q-H5mCCd0UTdNWvm-7" value="33" style="whiteSpace=wrap;html=1;aspect=fixed;" vertex="1" parent="Iwr2Q-H5mCCd0UTdNWvm-1">
          <mxGeometry x="280" y="120" width="40" height="40" as="geometry" />
        </mxCell>
        <mxCell id="Iwr2Q-H5mCCd0UTdNWvm-8" value="" style="whiteSpace=wrap;html=1;aspect=fixed;" vertex="1" parent="Iwr2Q-H5mCCd0UTdNWvm-1">
          <mxGeometry x="320" y="120" width="40" height="40" as="geometry" />
        </mxCell>
        <mxCell id="Iwr2Q-H5mCCd0UTdNWvm-9" value="" style="whiteSpace=wrap;html=1;aspect=fixed;" vertex="1" parent="Iwr2Q-H5mCCd0UTdNWvm-1">
          <mxGeometry x="360" y="120" width="40" height="40" as="geometry" />
        </mxCell>
        <mxCell id="Iwr2Q-H5mCCd0UTdNWvm-10" value="8" style="whiteSpace=wrap;html=1;aspect=fixed;" vertex="1" parent="Iwr2Q-H5mCCd0UTdNWvm-1">
          <mxGeometry x="400" y="120" width="40" height="40" as="geometry" />
        </mxCell>
        <mxCell id="Iwr2Q-H5mCCd0UTdNWvm-11" value="" style="whiteSpace=wrap;html=1;aspect=fixed;" vertex="1" parent="Iwr2Q-H5mCCd0UTdNWvm-1">
          <mxGeometry x="440" y="120" width="40" height="40" as="geometry" />
        </mxCell>
        <mxCell id="Iwr2Q-H5mCCd0UTdNWvm-12" value="Tamanha = 10" style="text;html=1;align=center;verticalAlign=middle;resizable=0;points=[];autosize=1;strokeColor=none;fillColor=none;" vertex="1" parent="Iwr2Q-H5mCCd0UTdNWvm-1">
          <mxGeometry x="30" y="10" width="100" height="30" as="geometry" />
        </mxCell>
        <mxCell id="Iwr2Q-H5mCCd0UTdNWvm-13" value="Fórmula hash: %10 (mod)" style="text;html=1;align=center;verticalAlign=middle;resizable=0;points=[];autosize=1;strokeColor=none;fillColor=none;" vertex="1" parent="Iwr2Q-H5mCCd0UTdNWvm-1">
          <mxGeometry x="160" y="10" width="160" height="30" as="geometry" />
        </mxCell>
        <mxCell id="Iwr2Q-H5mCCd0UTdNWvm-14" value="0" style="text;html=1;align=center;verticalAlign=middle;resizable=0;points=[];autosize=1;strokeColor=none;fillColor=none;" vertex="1" parent="Iwr2Q-H5mCCd0UTdNWvm-1">
          <mxGeometry x="85" y="90" width="30" height="30" as="geometry" />
        </mxCell>
        <mxCell id="Iwr2Q-H5mCCd0UTdNWvm-15" value="1" style="text;html=1;align=center;verticalAlign=middle;resizable=0;points=[];autosize=1;strokeColor=none;fillColor=none;" vertex="1" parent="Iwr2Q-H5mCCd0UTdNWvm-1">
          <mxGeometry x="125" y="90" width="30" height="30" as="geometry" />
        </mxCell>
        <mxCell id="Iwr2Q-H5mCCd0UTdNWvm-16" value="2" style="text;html=1;align=center;verticalAlign=middle;resizable=0;points=[];autosize=1;strokeColor=none;fillColor=none;" vertex="1" parent="Iwr2Q-H5mCCd0UTdNWvm-1">
          <mxGeometry x="165" y="90" width="30" height="30" as="geometry" />
        </mxCell>
        <mxCell id="Iwr2Q-H5mCCd0UTdNWvm-17" value="3" style="text;html=1;align=center;verticalAlign=middle;resizable=0;points=[];autosize=1;strokeColor=none;fillColor=none;" vertex="1" parent="Iwr2Q-H5mCCd0UTdNWvm-1">
          <mxGeometry x="205" y="90" width="30" height="30" as="geometry" />
        </mxCell>
        <mxCell id="Iwr2Q-H5mCCd0UTdNWvm-18" value="4" style="text;html=1;align=center;verticalAlign=middle;resizable=0;points=[];autosize=1;strokeColor=none;fillColor=none;" vertex="1" parent="Iwr2Q-H5mCCd0UTdNWvm-1">
          <mxGeometry x="245" y="90" width="30" height="30" as="geometry" />
        </mxCell>
        <mxCell id="Iwr2Q-H5mCCd0UTdNWvm-19" value="5" style="text;html=1;align=center;verticalAlign=middle;resizable=0;points=[];autosize=1;strokeColor=none;fillColor=none;" vertex="1" parent="Iwr2Q-H5mCCd0UTdNWvm-1">
          <mxGeometry x="285" y="90" width="30" height="30" as="geometry" />
        </mxCell>
        <mxCell id="Iwr2Q-H5mCCd0UTdNWvm-20" value="6" style="text;html=1;align=center;verticalAlign=middle;resizable=0;points=[];autosize=1;strokeColor=none;fillColor=none;" vertex="1" parent="Iwr2Q-H5mCCd0UTdNWvm-1">
          <mxGeometry x="325" y="90" width="30" height="30" as="geometry" />
        </mxCell>
        <mxCell id="Iwr2Q-H5mCCd0UTdNWvm-21" value="7" style="text;html=1;align=center;verticalAlign=middle;resizable=0;points=[];autosize=1;strokeColor=none;fillColor=none;" vertex="1" parent="Iwr2Q-H5mCCd0UTdNWvm-1">
          <mxGeometry x="365" y="90" width="30" height="30" as="geometry" />
        </mxCell>
        <mxCell id="Iwr2Q-H5mCCd0UTdNWvm-22" value="8" style="text;html=1;align=center;verticalAlign=middle;resizable=0;points=[];autosize=1;strokeColor=none;fillColor=none;" vertex="1" parent="Iwr2Q-H5mCCd0UTdNWvm-1">
          <mxGeometry x="405" y="90" width="30" height="30" as="geometry" />
        </mxCell>
        <mxCell id="Iwr2Q-H5mCCd0UTdNWvm-23" value="9" style="text;html=1;align=center;verticalAlign=middle;resizable=0;points=[];autosize=1;strokeColor=none;fillColor=none;" vertex="1" parent="Iwr2Q-H5mCCd0UTdNWvm-1">
          <mxGeometry x="445" y="90" width="30" height="30" as="geometry" />
        </mxCell>
      </root>
    </mxGraphModel>
  </diagram>
  <diagram name="8" id="uciZCt5xvt5h_aQ18fc_">
    <mxGraphModel dx="995" dy="471" grid="1" gridSize="10" guides="1" tooltips="1" connect="1" arrows="1" fold="1" page="1" pageScale="1" pageWidth="850" pageHeight="1100" math="0" shadow="0">
      <root>
        <mxCell id="KQX_FwrV_Xwb5FtOZ_kN-0" />
        <mxCell id="KQX_FwrV_Xwb5FtOZ_kN-1" parent="KQX_FwrV_Xwb5FtOZ_kN-0" />
        <mxCell id="KQX_FwrV_Xwb5FtOZ_kN-2" value="10" style="whiteSpace=wrap;html=1;aspect=fixed;" vertex="1" parent="KQX_FwrV_Xwb5FtOZ_kN-1">
          <mxGeometry x="80" y="120" width="40" height="40" as="geometry" />
        </mxCell>
        <mxCell id="KQX_FwrV_Xwb5FtOZ_kN-3" value="21" style="whiteSpace=wrap;html=1;aspect=fixed;" vertex="1" parent="KQX_FwrV_Xwb5FtOZ_kN-1">
          <mxGeometry x="120" y="120" width="40" height="40" as="geometry" />
        </mxCell>
        <mxCell id="KQX_FwrV_Xwb5FtOZ_kN-4" value="12" style="whiteSpace=wrap;html=1;aspect=fixed;" vertex="1" parent="KQX_FwrV_Xwb5FtOZ_kN-1">
          <mxGeometry x="160" y="120" width="40" height="40" as="geometry" />
        </mxCell>
        <mxCell id="KQX_FwrV_Xwb5FtOZ_kN-5" value="23" style="whiteSpace=wrap;html=1;aspect=fixed;" vertex="1" parent="KQX_FwrV_Xwb5FtOZ_kN-1">
          <mxGeometry x="200" y="120" width="40" height="40" as="geometry" />
        </mxCell>
        <mxCell id="KQX_FwrV_Xwb5FtOZ_kN-6" value="52" style="whiteSpace=wrap;html=1;aspect=fixed;" vertex="1" parent="KQX_FwrV_Xwb5FtOZ_kN-1">
          <mxGeometry x="240" y="120" width="40" height="40" as="geometry" />
        </mxCell>
        <mxCell id="KQX_FwrV_Xwb5FtOZ_kN-7" value="33" style="whiteSpace=wrap;html=1;aspect=fixed;" vertex="1" parent="KQX_FwrV_Xwb5FtOZ_kN-1">
          <mxGeometry x="280" y="120" width="40" height="40" as="geometry" />
        </mxCell>
        <mxCell id="KQX_FwrV_Xwb5FtOZ_kN-8" value="42" style="whiteSpace=wrap;html=1;aspect=fixed;" vertex="1" parent="KQX_FwrV_Xwb5FtOZ_kN-1">
          <mxGeometry x="320" y="120" width="40" height="40" as="geometry" />
        </mxCell>
        <mxCell id="KQX_FwrV_Xwb5FtOZ_kN-9" value="" style="whiteSpace=wrap;html=1;aspect=fixed;" vertex="1" parent="KQX_FwrV_Xwb5FtOZ_kN-1">
          <mxGeometry x="360" y="120" width="40" height="40" as="geometry" />
        </mxCell>
        <mxCell id="KQX_FwrV_Xwb5FtOZ_kN-10" value="8" style="whiteSpace=wrap;html=1;aspect=fixed;" vertex="1" parent="KQX_FwrV_Xwb5FtOZ_kN-1">
          <mxGeometry x="400" y="120" width="40" height="40" as="geometry" />
        </mxCell>
        <mxCell id="KQX_FwrV_Xwb5FtOZ_kN-11" value="" style="whiteSpace=wrap;html=1;aspect=fixed;" vertex="1" parent="KQX_FwrV_Xwb5FtOZ_kN-1">
          <mxGeometry x="440" y="120" width="40" height="40" as="geometry" />
        </mxCell>
        <mxCell id="KQX_FwrV_Xwb5FtOZ_kN-12" value="Tamanha = 10" style="text;html=1;align=center;verticalAlign=middle;resizable=0;points=[];autosize=1;strokeColor=none;fillColor=none;" vertex="1" parent="KQX_FwrV_Xwb5FtOZ_kN-1">
          <mxGeometry x="30" y="10" width="100" height="30" as="geometry" />
        </mxCell>
        <mxCell id="KQX_FwrV_Xwb5FtOZ_kN-13" value="Fórmula hash: %10 (mod)" style="text;html=1;align=center;verticalAlign=middle;resizable=0;points=[];autosize=1;strokeColor=none;fillColor=none;" vertex="1" parent="KQX_FwrV_Xwb5FtOZ_kN-1">
          <mxGeometry x="160" y="10" width="160" height="30" as="geometry" />
        </mxCell>
        <mxCell id="KQX_FwrV_Xwb5FtOZ_kN-14" value="0" style="text;html=1;align=center;verticalAlign=middle;resizable=0;points=[];autosize=1;strokeColor=none;fillColor=none;" vertex="1" parent="KQX_FwrV_Xwb5FtOZ_kN-1">
          <mxGeometry x="85" y="90" width="30" height="30" as="geometry" />
        </mxCell>
        <mxCell id="KQX_FwrV_Xwb5FtOZ_kN-15" value="1" style="text;html=1;align=center;verticalAlign=middle;resizable=0;points=[];autosize=1;strokeColor=none;fillColor=none;" vertex="1" parent="KQX_FwrV_Xwb5FtOZ_kN-1">
          <mxGeometry x="125" y="90" width="30" height="30" as="geometry" />
        </mxCell>
        <mxCell id="KQX_FwrV_Xwb5FtOZ_kN-16" value="2" style="text;html=1;align=center;verticalAlign=middle;resizable=0;points=[];autosize=1;strokeColor=none;fillColor=none;" vertex="1" parent="KQX_FwrV_Xwb5FtOZ_kN-1">
          <mxGeometry x="165" y="90" width="30" height="30" as="geometry" />
        </mxCell>
        <mxCell id="KQX_FwrV_Xwb5FtOZ_kN-17" value="3" style="text;html=1;align=center;verticalAlign=middle;resizable=0;points=[];autosize=1;strokeColor=none;fillColor=none;" vertex="1" parent="KQX_FwrV_Xwb5FtOZ_kN-1">
          <mxGeometry x="205" y="90" width="30" height="30" as="geometry" />
        </mxCell>
        <mxCell id="KQX_FwrV_Xwb5FtOZ_kN-18" value="4" style="text;html=1;align=center;verticalAlign=middle;resizable=0;points=[];autosize=1;strokeColor=none;fillColor=none;" vertex="1" parent="KQX_FwrV_Xwb5FtOZ_kN-1">
          <mxGeometry x="245" y="90" width="30" height="30" as="geometry" />
        </mxCell>
        <mxCell id="KQX_FwrV_Xwb5FtOZ_kN-19" value="5" style="text;html=1;align=center;verticalAlign=middle;resizable=0;points=[];autosize=1;strokeColor=none;fillColor=none;" vertex="1" parent="KQX_FwrV_Xwb5FtOZ_kN-1">
          <mxGeometry x="285" y="90" width="30" height="30" as="geometry" />
        </mxCell>
        <mxCell id="KQX_FwrV_Xwb5FtOZ_kN-20" value="6" style="text;html=1;align=center;verticalAlign=middle;resizable=0;points=[];autosize=1;strokeColor=none;fillColor=none;" vertex="1" parent="KQX_FwrV_Xwb5FtOZ_kN-1">
          <mxGeometry x="325" y="90" width="30" height="30" as="geometry" />
        </mxCell>
        <mxCell id="KQX_FwrV_Xwb5FtOZ_kN-21" value="7" style="text;html=1;align=center;verticalAlign=middle;resizable=0;points=[];autosize=1;strokeColor=none;fillColor=none;" vertex="1" parent="KQX_FwrV_Xwb5FtOZ_kN-1">
          <mxGeometry x="365" y="90" width="30" height="30" as="geometry" />
        </mxCell>
        <mxCell id="KQX_FwrV_Xwb5FtOZ_kN-22" value="8" style="text;html=1;align=center;verticalAlign=middle;resizable=0;points=[];autosize=1;strokeColor=none;fillColor=none;" vertex="1" parent="KQX_FwrV_Xwb5FtOZ_kN-1">
          <mxGeometry x="405" y="90" width="30" height="30" as="geometry" />
        </mxCell>
        <mxCell id="KQX_FwrV_Xwb5FtOZ_kN-23" value="9" style="text;html=1;align=center;verticalAlign=middle;resizable=0;points=[];autosize=1;strokeColor=none;fillColor=none;" vertex="1" parent="KQX_FwrV_Xwb5FtOZ_kN-1">
          <mxGeometry x="445" y="90" width="30" height="30" as="geometry" />
        </mxCell>
      </root>
    </mxGraphModel>
  </diagram>
  <diagram name="9" id="BTGIKzAMDO0dyT0uqbWr">
    <mxGraphModel dx="995" dy="471" grid="1" gridSize="10" guides="1" tooltips="1" connect="1" arrows="1" fold="1" page="1" pageScale="1" pageWidth="850" pageHeight="1100" math="0" shadow="0">
      <root>
        <mxCell id="L6GQ9uVIj0QLIeCI37Ji-0" />
        <mxCell id="L6GQ9uVIj0QLIeCI37Ji-1" parent="L6GQ9uVIj0QLIeCI37Ji-0" />
        <mxCell id="L6GQ9uVIj0QLIeCI37Ji-2" value="10" style="whiteSpace=wrap;html=1;aspect=fixed;" vertex="1" parent="L6GQ9uVIj0QLIeCI37Ji-1">
          <mxGeometry x="80" y="120" width="40" height="40" as="geometry" />
        </mxCell>
        <mxCell id="L6GQ9uVIj0QLIeCI37Ji-3" value="21" style="whiteSpace=wrap;html=1;aspect=fixed;" vertex="1" parent="L6GQ9uVIj0QLIeCI37Ji-1">
          <mxGeometry x="120" y="120" width="40" height="40" as="geometry" />
        </mxCell>
        <mxCell id="L6GQ9uVIj0QLIeCI37Ji-4" value="12" style="whiteSpace=wrap;html=1;aspect=fixed;" vertex="1" parent="L6GQ9uVIj0QLIeCI37Ji-1">
          <mxGeometry x="160" y="120" width="40" height="40" as="geometry" />
        </mxCell>
        <mxCell id="L6GQ9uVIj0QLIeCI37Ji-5" value="23" style="whiteSpace=wrap;html=1;aspect=fixed;" vertex="1" parent="L6GQ9uVIj0QLIeCI37Ji-1">
          <mxGeometry x="200" y="120" width="40" height="40" as="geometry" />
        </mxCell>
        <mxCell id="L6GQ9uVIj0QLIeCI37Ji-6" value="52" style="whiteSpace=wrap;html=1;aspect=fixed;" vertex="1" parent="L6GQ9uVIj0QLIeCI37Ji-1">
          <mxGeometry x="240" y="120" width="40" height="40" as="geometry" />
        </mxCell>
        <mxCell id="L6GQ9uVIj0QLIeCI37Ji-7" value="33" style="whiteSpace=wrap;html=1;aspect=fixed;" vertex="1" parent="L6GQ9uVIj0QLIeCI37Ji-1">
          <mxGeometry x="280" y="120" width="40" height="40" as="geometry" />
        </mxCell>
        <mxCell id="L6GQ9uVIj0QLIeCI37Ji-8" value="42" style="whiteSpace=wrap;html=1;aspect=fixed;" vertex="1" parent="L6GQ9uVIj0QLIeCI37Ji-1">
          <mxGeometry x="320" y="120" width="40" height="40" as="geometry" />
        </mxCell>
        <mxCell id="L6GQ9uVIj0QLIeCI37Ji-9" value="11" style="whiteSpace=wrap;html=1;aspect=fixed;" vertex="1" parent="L6GQ9uVIj0QLIeCI37Ji-1">
          <mxGeometry x="360" y="120" width="40" height="40" as="geometry" />
        </mxCell>
        <mxCell id="L6GQ9uVIj0QLIeCI37Ji-10" value="8" style="whiteSpace=wrap;html=1;aspect=fixed;" vertex="1" parent="L6GQ9uVIj0QLIeCI37Ji-1">
          <mxGeometry x="400" y="120" width="40" height="40" as="geometry" />
        </mxCell>
        <mxCell id="L6GQ9uVIj0QLIeCI37Ji-11" value="" style="whiteSpace=wrap;html=1;aspect=fixed;" vertex="1" parent="L6GQ9uVIj0QLIeCI37Ji-1">
          <mxGeometry x="440" y="120" width="40" height="40" as="geometry" />
        </mxCell>
        <mxCell id="L6GQ9uVIj0QLIeCI37Ji-12" value="Tamanha = 10" style="text;html=1;align=center;verticalAlign=middle;resizable=0;points=[];autosize=1;strokeColor=none;fillColor=none;" vertex="1" parent="L6GQ9uVIj0QLIeCI37Ji-1">
          <mxGeometry x="30" y="10" width="100" height="30" as="geometry" />
        </mxCell>
        <mxCell id="L6GQ9uVIj0QLIeCI37Ji-13" value="Fórmula hash: %10 (mod)" style="text;html=1;align=center;verticalAlign=middle;resizable=0;points=[];autosize=1;strokeColor=none;fillColor=none;" vertex="1" parent="L6GQ9uVIj0QLIeCI37Ji-1">
          <mxGeometry x="160" y="10" width="160" height="30" as="geometry" />
        </mxCell>
        <mxCell id="L6GQ9uVIj0QLIeCI37Ji-14" value="0" style="text;html=1;align=center;verticalAlign=middle;resizable=0;points=[];autosize=1;strokeColor=none;fillColor=none;" vertex="1" parent="L6GQ9uVIj0QLIeCI37Ji-1">
          <mxGeometry x="85" y="90" width="30" height="30" as="geometry" />
        </mxCell>
        <mxCell id="L6GQ9uVIj0QLIeCI37Ji-15" value="1" style="text;html=1;align=center;verticalAlign=middle;resizable=0;points=[];autosize=1;strokeColor=none;fillColor=none;" vertex="1" parent="L6GQ9uVIj0QLIeCI37Ji-1">
          <mxGeometry x="125" y="90" width="30" height="30" as="geometry" />
        </mxCell>
        <mxCell id="L6GQ9uVIj0QLIeCI37Ji-16" value="2" style="text;html=1;align=center;verticalAlign=middle;resizable=0;points=[];autosize=1;strokeColor=none;fillColor=none;" vertex="1" parent="L6GQ9uVIj0QLIeCI37Ji-1">
          <mxGeometry x="165" y="90" width="30" height="30" as="geometry" />
        </mxCell>
        <mxCell id="L6GQ9uVIj0QLIeCI37Ji-17" value="3" style="text;html=1;align=center;verticalAlign=middle;resizable=0;points=[];autosize=1;strokeColor=none;fillColor=none;" vertex="1" parent="L6GQ9uVIj0QLIeCI37Ji-1">
          <mxGeometry x="205" y="90" width="30" height="30" as="geometry" />
        </mxCell>
        <mxCell id="L6GQ9uVIj0QLIeCI37Ji-18" value="4" style="text;html=1;align=center;verticalAlign=middle;resizable=0;points=[];autosize=1;strokeColor=none;fillColor=none;" vertex="1" parent="L6GQ9uVIj0QLIeCI37Ji-1">
          <mxGeometry x="245" y="90" width="30" height="30" as="geometry" />
        </mxCell>
        <mxCell id="L6GQ9uVIj0QLIeCI37Ji-19" value="5" style="text;html=1;align=center;verticalAlign=middle;resizable=0;points=[];autosize=1;strokeColor=none;fillColor=none;" vertex="1" parent="L6GQ9uVIj0QLIeCI37Ji-1">
          <mxGeometry x="285" y="90" width="30" height="30" as="geometry" />
        </mxCell>
        <mxCell id="L6GQ9uVIj0QLIeCI37Ji-20" value="6" style="text;html=1;align=center;verticalAlign=middle;resizable=0;points=[];autosize=1;strokeColor=none;fillColor=none;" vertex="1" parent="L6GQ9uVIj0QLIeCI37Ji-1">
          <mxGeometry x="325" y="90" width="30" height="30" as="geometry" />
        </mxCell>
        <mxCell id="L6GQ9uVIj0QLIeCI37Ji-21" value="7" style="text;html=1;align=center;verticalAlign=middle;resizable=0;points=[];autosize=1;strokeColor=none;fillColor=none;" vertex="1" parent="L6GQ9uVIj0QLIeCI37Ji-1">
          <mxGeometry x="365" y="90" width="30" height="30" as="geometry" />
        </mxCell>
        <mxCell id="L6GQ9uVIj0QLIeCI37Ji-22" value="8" style="text;html=1;align=center;verticalAlign=middle;resizable=0;points=[];autosize=1;strokeColor=none;fillColor=none;" vertex="1" parent="L6GQ9uVIj0QLIeCI37Ji-1">
          <mxGeometry x="405" y="90" width="30" height="30" as="geometry" />
        </mxCell>
        <mxCell id="L6GQ9uVIj0QLIeCI37Ji-23" value="9" style="text;html=1;align=center;verticalAlign=middle;resizable=0;points=[];autosize=1;strokeColor=none;fillColor=none;" vertex="1" parent="L6GQ9uVIj0QLIeCI37Ji-1">
          <mxGeometry x="445" y="90" width="30" height="30" as="geometry" />
        </mxCell>
      </root>
    </mxGraphModel>
  </diagram>
  <diagram name="10" id="kw68WIGIXF1kWnU9ThNb">
    <mxGraphModel dx="995" dy="471" grid="1" gridSize="10" guides="1" tooltips="1" connect="1" arrows="1" fold="1" page="1" pageScale="1" pageWidth="850" pageHeight="1100" math="0" shadow="0">
      <root>
        <mxCell id="rll3j7C8LbMqoy2oc1IH-0" />
        <mxCell id="rll3j7C8LbMqoy2oc1IH-1" parent="rll3j7C8LbMqoy2oc1IH-0" />
        <mxCell id="rll3j7C8LbMqoy2oc1IH-2" value="10" style="whiteSpace=wrap;html=1;aspect=fixed;" vertex="1" parent="rll3j7C8LbMqoy2oc1IH-1">
          <mxGeometry x="80" y="120" width="40" height="40" as="geometry" />
        </mxCell>
        <mxCell id="rll3j7C8LbMqoy2oc1IH-3" value="21" style="whiteSpace=wrap;html=1;aspect=fixed;" vertex="1" parent="rll3j7C8LbMqoy2oc1IH-1">
          <mxGeometry x="120" y="120" width="40" height="40" as="geometry" />
        </mxCell>
        <mxCell id="rll3j7C8LbMqoy2oc1IH-4" value="12" style="whiteSpace=wrap;html=1;aspect=fixed;" vertex="1" parent="rll3j7C8LbMqoy2oc1IH-1">
          <mxGeometry x="160" y="120" width="40" height="40" as="geometry" />
        </mxCell>
        <mxCell id="rll3j7C8LbMqoy2oc1IH-5" value="23" style="whiteSpace=wrap;html=1;aspect=fixed;" vertex="1" parent="rll3j7C8LbMqoy2oc1IH-1">
          <mxGeometry x="200" y="120" width="40" height="40" as="geometry" />
        </mxCell>
        <mxCell id="rll3j7C8LbMqoy2oc1IH-6" value="52" style="whiteSpace=wrap;html=1;aspect=fixed;" vertex="1" parent="rll3j7C8LbMqoy2oc1IH-1">
          <mxGeometry x="240" y="120" width="40" height="40" as="geometry" />
        </mxCell>
        <mxCell id="rll3j7C8LbMqoy2oc1IH-7" value="33" style="whiteSpace=wrap;html=1;aspect=fixed;" vertex="1" parent="rll3j7C8LbMqoy2oc1IH-1">
          <mxGeometry x="280" y="120" width="40" height="40" as="geometry" />
        </mxCell>
        <mxCell id="rll3j7C8LbMqoy2oc1IH-8" value="42" style="whiteSpace=wrap;html=1;aspect=fixed;" vertex="1" parent="rll3j7C8LbMqoy2oc1IH-1">
          <mxGeometry x="320" y="120" width="40" height="40" as="geometry" />
        </mxCell>
        <mxCell id="rll3j7C8LbMqoy2oc1IH-9" value="11" style="whiteSpace=wrap;html=1;aspect=fixed;" vertex="1" parent="rll3j7C8LbMqoy2oc1IH-1">
          <mxGeometry x="360" y="120" width="40" height="40" as="geometry" />
        </mxCell>
        <mxCell id="rll3j7C8LbMqoy2oc1IH-10" value="8" style="whiteSpace=wrap;html=1;aspect=fixed;" vertex="1" parent="rll3j7C8LbMqoy2oc1IH-1">
          <mxGeometry x="400" y="120" width="40" height="40" as="geometry" />
        </mxCell>
        <mxCell id="rll3j7C8LbMqoy2oc1IH-11" value="9" style="whiteSpace=wrap;html=1;aspect=fixed;" vertex="1" parent="rll3j7C8LbMqoy2oc1IH-1">
          <mxGeometry x="440" y="120" width="40" height="40" as="geometry" />
        </mxCell>
        <mxCell id="rll3j7C8LbMqoy2oc1IH-12" value="Tamanha = 10" style="text;html=1;align=center;verticalAlign=middle;resizable=0;points=[];autosize=1;strokeColor=none;fillColor=none;" vertex="1" parent="rll3j7C8LbMqoy2oc1IH-1">
          <mxGeometry x="30" y="10" width="100" height="30" as="geometry" />
        </mxCell>
        <mxCell id="rll3j7C8LbMqoy2oc1IH-13" value="Fórmula hash: %10 (mod)" style="text;html=1;align=center;verticalAlign=middle;resizable=0;points=[];autosize=1;strokeColor=none;fillColor=none;" vertex="1" parent="rll3j7C8LbMqoy2oc1IH-1">
          <mxGeometry x="160" y="10" width="160" height="30" as="geometry" />
        </mxCell>
        <mxCell id="rll3j7C8LbMqoy2oc1IH-14" value="0" style="text;html=1;align=center;verticalAlign=middle;resizable=0;points=[];autosize=1;strokeColor=none;fillColor=none;" vertex="1" parent="rll3j7C8LbMqoy2oc1IH-1">
          <mxGeometry x="85" y="90" width="30" height="30" as="geometry" />
        </mxCell>
        <mxCell id="rll3j7C8LbMqoy2oc1IH-15" value="1" style="text;html=1;align=center;verticalAlign=middle;resizable=0;points=[];autosize=1;strokeColor=none;fillColor=none;" vertex="1" parent="rll3j7C8LbMqoy2oc1IH-1">
          <mxGeometry x="125" y="90" width="30" height="30" as="geometry" />
        </mxCell>
        <mxCell id="rll3j7C8LbMqoy2oc1IH-16" value="2" style="text;html=1;align=center;verticalAlign=middle;resizable=0;points=[];autosize=1;strokeColor=none;fillColor=none;" vertex="1" parent="rll3j7C8LbMqoy2oc1IH-1">
          <mxGeometry x="165" y="90" width="30" height="30" as="geometry" />
        </mxCell>
        <mxCell id="rll3j7C8LbMqoy2oc1IH-17" value="3" style="text;html=1;align=center;verticalAlign=middle;resizable=0;points=[];autosize=1;strokeColor=none;fillColor=none;" vertex="1" parent="rll3j7C8LbMqoy2oc1IH-1">
          <mxGeometry x="205" y="90" width="30" height="30" as="geometry" />
        </mxCell>
        <mxCell id="rll3j7C8LbMqoy2oc1IH-18" value="4" style="text;html=1;align=center;verticalAlign=middle;resizable=0;points=[];autosize=1;strokeColor=none;fillColor=none;" vertex="1" parent="rll3j7C8LbMqoy2oc1IH-1">
          <mxGeometry x="245" y="90" width="30" height="30" as="geometry" />
        </mxCell>
        <mxCell id="rll3j7C8LbMqoy2oc1IH-19" value="5" style="text;html=1;align=center;verticalAlign=middle;resizable=0;points=[];autosize=1;strokeColor=none;fillColor=none;" vertex="1" parent="rll3j7C8LbMqoy2oc1IH-1">
          <mxGeometry x="285" y="90" width="30" height="30" as="geometry" />
        </mxCell>
        <mxCell id="rll3j7C8LbMqoy2oc1IH-20" value="6" style="text;html=1;align=center;verticalAlign=middle;resizable=0;points=[];autosize=1;strokeColor=none;fillColor=none;" vertex="1" parent="rll3j7C8LbMqoy2oc1IH-1">
          <mxGeometry x="325" y="90" width="30" height="30" as="geometry" />
        </mxCell>
        <mxCell id="rll3j7C8LbMqoy2oc1IH-21" value="7" style="text;html=1;align=center;verticalAlign=middle;resizable=0;points=[];autosize=1;strokeColor=none;fillColor=none;" vertex="1" parent="rll3j7C8LbMqoy2oc1IH-1">
          <mxGeometry x="365" y="90" width="30" height="30" as="geometry" />
        </mxCell>
        <mxCell id="rll3j7C8LbMqoy2oc1IH-22" value="8" style="text;html=1;align=center;verticalAlign=middle;resizable=0;points=[];autosize=1;strokeColor=none;fillColor=none;" vertex="1" parent="rll3j7C8LbMqoy2oc1IH-1">
          <mxGeometry x="405" y="90" width="30" height="30" as="geometry" />
        </mxCell>
        <mxCell id="rll3j7C8LbMqoy2oc1IH-23" value="9" style="text;html=1;align=center;verticalAlign=middle;resizable=0;points=[];autosize=1;strokeColor=none;fillColor=none;" vertex="1" parent="rll3j7C8LbMqoy2oc1IH-1">
          <mxGeometry x="445" y="90" width="30" height="30" as="geometry" />
        </mxCell>
      </root>
    </mxGraphModel>
  </diagram>
  <diagram name="Copy of 10" id="xHZ7m5lnx74eMyxA7VOa">
    <mxGraphModel dx="995" dy="471" grid="1" gridSize="10" guides="1" tooltips="1" connect="1" arrows="1" fold="1" page="1" pageScale="1" pageWidth="850" pageHeight="1100" math="0" shadow="0">
      <root>
        <mxCell id="CjDcEiohNryeKbt76IGu-0" />
        <mxCell id="CjDcEiohNryeKbt76IGu-1" parent="CjDcEiohNryeKbt76IGu-0" />
        <mxCell id="CjDcEiohNryeKbt76IGu-2" value="10" style="whiteSpace=wrap;html=1;aspect=fixed;" vertex="1" parent="CjDcEiohNryeKbt76IGu-1">
          <mxGeometry x="80" y="120" width="40" height="40" as="geometry" />
        </mxCell>
        <mxCell id="CjDcEiohNryeKbt76IGu-3" value="21" style="whiteSpace=wrap;html=1;aspect=fixed;" vertex="1" parent="CjDcEiohNryeKbt76IGu-1">
          <mxGeometry x="120" y="120" width="40" height="40" as="geometry" />
        </mxCell>
        <mxCell id="CjDcEiohNryeKbt76IGu-4" value="12" style="whiteSpace=wrap;html=1;aspect=fixed;" vertex="1" parent="CjDcEiohNryeKbt76IGu-1">
          <mxGeometry x="160" y="120" width="40" height="40" as="geometry" />
        </mxCell>
        <mxCell id="CjDcEiohNryeKbt76IGu-5" value="-2" style="whiteSpace=wrap;html=1;aspect=fixed;" vertex="1" parent="CjDcEiohNryeKbt76IGu-1">
          <mxGeometry x="200" y="120" width="40" height="40" as="geometry" />
        </mxCell>
        <mxCell id="CjDcEiohNryeKbt76IGu-6" value="52" style="whiteSpace=wrap;html=1;aspect=fixed;" vertex="1" parent="CjDcEiohNryeKbt76IGu-1">
          <mxGeometry x="240" y="120" width="40" height="40" as="geometry" />
        </mxCell>
        <mxCell id="CjDcEiohNryeKbt76IGu-7" value="33" style="whiteSpace=wrap;html=1;aspect=fixed;" vertex="1" parent="CjDcEiohNryeKbt76IGu-1">
          <mxGeometry x="280" y="120" width="40" height="40" as="geometry" />
        </mxCell>
        <mxCell id="CjDcEiohNryeKbt76IGu-8" value="42" style="whiteSpace=wrap;html=1;aspect=fixed;" vertex="1" parent="CjDcEiohNryeKbt76IGu-1">
          <mxGeometry x="320" y="120" width="40" height="40" as="geometry" />
        </mxCell>
        <mxCell id="CjDcEiohNryeKbt76IGu-9" value="11" style="whiteSpace=wrap;html=1;aspect=fixed;" vertex="1" parent="CjDcEiohNryeKbt76IGu-1">
          <mxGeometry x="360" y="120" width="40" height="40" as="geometry" />
        </mxCell>
        <mxCell id="CjDcEiohNryeKbt76IGu-10" value="8" style="whiteSpace=wrap;html=1;aspect=fixed;" vertex="1" parent="CjDcEiohNryeKbt76IGu-1">
          <mxGeometry x="400" y="120" width="40" height="40" as="geometry" />
        </mxCell>
        <mxCell id="CjDcEiohNryeKbt76IGu-11" value="9" style="whiteSpace=wrap;html=1;aspect=fixed;" vertex="1" parent="CjDcEiohNryeKbt76IGu-1">
          <mxGeometry x="440" y="120" width="40" height="40" as="geometry" />
        </mxCell>
        <mxCell id="CjDcEiohNryeKbt76IGu-12" value="Tamanha = 10" style="text;html=1;align=center;verticalAlign=middle;resizable=0;points=[];autosize=1;strokeColor=none;fillColor=none;" vertex="1" parent="CjDcEiohNryeKbt76IGu-1">
          <mxGeometry x="30" y="10" width="100" height="30" as="geometry" />
        </mxCell>
        <mxCell id="CjDcEiohNryeKbt76IGu-13" value="Fórmula hash: %10 (mod)" style="text;html=1;align=center;verticalAlign=middle;resizable=0;points=[];autosize=1;strokeColor=none;fillColor=none;" vertex="1" parent="CjDcEiohNryeKbt76IGu-1">
          <mxGeometry x="160" y="10" width="160" height="30" as="geometry" />
        </mxCell>
        <mxCell id="CjDcEiohNryeKbt76IGu-14" value="0" style="text;html=1;align=center;verticalAlign=middle;resizable=0;points=[];autosize=1;strokeColor=none;fillColor=none;" vertex="1" parent="CjDcEiohNryeKbt76IGu-1">
          <mxGeometry x="85" y="90" width="30" height="30" as="geometry" />
        </mxCell>
        <mxCell id="CjDcEiohNryeKbt76IGu-15" value="1" style="text;html=1;align=center;verticalAlign=middle;resizable=0;points=[];autosize=1;strokeColor=none;fillColor=none;" vertex="1" parent="CjDcEiohNryeKbt76IGu-1">
          <mxGeometry x="125" y="90" width="30" height="30" as="geometry" />
        </mxCell>
        <mxCell id="CjDcEiohNryeKbt76IGu-16" value="2" style="text;html=1;align=center;verticalAlign=middle;resizable=0;points=[];autosize=1;strokeColor=none;fillColor=none;" vertex="1" parent="CjDcEiohNryeKbt76IGu-1">
          <mxGeometry x="165" y="90" width="30" height="30" as="geometry" />
        </mxCell>
        <mxCell id="CjDcEiohNryeKbt76IGu-17" value="3" style="text;html=1;align=center;verticalAlign=middle;resizable=0;points=[];autosize=1;strokeColor=none;fillColor=none;" vertex="1" parent="CjDcEiohNryeKbt76IGu-1">
          <mxGeometry x="205" y="90" width="30" height="30" as="geometry" />
        </mxCell>
        <mxCell id="CjDcEiohNryeKbt76IGu-18" value="4" style="text;html=1;align=center;verticalAlign=middle;resizable=0;points=[];autosize=1;strokeColor=none;fillColor=none;" vertex="1" parent="CjDcEiohNryeKbt76IGu-1">
          <mxGeometry x="245" y="90" width="30" height="30" as="geometry" />
        </mxCell>
        <mxCell id="CjDcEiohNryeKbt76IGu-19" value="5" style="text;html=1;align=center;verticalAlign=middle;resizable=0;points=[];autosize=1;strokeColor=none;fillColor=none;" vertex="1" parent="CjDcEiohNryeKbt76IGu-1">
          <mxGeometry x="285" y="90" width="30" height="30" as="geometry" />
        </mxCell>
        <mxCell id="CjDcEiohNryeKbt76IGu-20" value="6" style="text;html=1;align=center;verticalAlign=middle;resizable=0;points=[];autosize=1;strokeColor=none;fillColor=none;" vertex="1" parent="CjDcEiohNryeKbt76IGu-1">
          <mxGeometry x="325" y="90" width="30" height="30" as="geometry" />
        </mxCell>
        <mxCell id="CjDcEiohNryeKbt76IGu-21" value="7" style="text;html=1;align=center;verticalAlign=middle;resizable=0;points=[];autosize=1;strokeColor=none;fillColor=none;" vertex="1" parent="CjDcEiohNryeKbt76IGu-1">
          <mxGeometry x="365" y="90" width="30" height="30" as="geometry" />
        </mxCell>
        <mxCell id="CjDcEiohNryeKbt76IGu-22" value="8" style="text;html=1;align=center;verticalAlign=middle;resizable=0;points=[];autosize=1;strokeColor=none;fillColor=none;" vertex="1" parent="CjDcEiohNryeKbt76IGu-1">
          <mxGeometry x="405" y="90" width="30" height="30" as="geometry" />
        </mxCell>
        <mxCell id="CjDcEiohNryeKbt76IGu-23" value="9" style="text;html=1;align=center;verticalAlign=middle;resizable=0;points=[];autosize=1;strokeColor=none;fillColor=none;" vertex="1" parent="CjDcEiohNryeKbt76IGu-1">
          <mxGeometry x="445" y="90" width="30" height="30" as="geometry" />
        </mxCell>
      </root>
    </mxGraphModel>
  </diagram>
  <diagram name="Copy of Copy of 10" id="U9TGeTiw9TPyaKIAKbY7">
    <mxGraphModel dx="995" dy="471" grid="1" gridSize="10" guides="1" tooltips="1" connect="1" arrows="1" fold="1" page="1" pageScale="1" pageWidth="850" pageHeight="1100" math="0" shadow="0">
      <root>
        <mxCell id="YYfMpNCJ1Z7KZMAcPr7d-0" />
        <mxCell id="YYfMpNCJ1Z7KZMAcPr7d-1" parent="YYfMpNCJ1Z7KZMAcPr7d-0" />
        <mxCell id="YYfMpNCJ1Z7KZMAcPr7d-2" value="10" style="whiteSpace=wrap;html=1;aspect=fixed;" vertex="1" parent="YYfMpNCJ1Z7KZMAcPr7d-1">
          <mxGeometry x="80" y="120" width="40" height="40" as="geometry" />
        </mxCell>
        <mxCell id="YYfMpNCJ1Z7KZMAcPr7d-3" value="21" style="whiteSpace=wrap;html=1;aspect=fixed;" vertex="1" parent="YYfMpNCJ1Z7KZMAcPr7d-1">
          <mxGeometry x="120" y="120" width="40" height="40" as="geometry" />
        </mxCell>
        <mxCell id="YYfMpNCJ1Z7KZMAcPr7d-4" value="12" style="whiteSpace=wrap;html=1;aspect=fixed;" vertex="1" parent="YYfMpNCJ1Z7KZMAcPr7d-1">
          <mxGeometry x="160" y="120" width="40" height="40" as="geometry" />
        </mxCell>
        <mxCell id="YYfMpNCJ1Z7KZMAcPr7d-5" value="-2" style="whiteSpace=wrap;html=1;aspect=fixed;" vertex="1" parent="YYfMpNCJ1Z7KZMAcPr7d-1">
          <mxGeometry x="200" y="120" width="40" height="40" as="geometry" />
        </mxCell>
        <mxCell id="YYfMpNCJ1Z7KZMAcPr7d-6" value="-2" style="whiteSpace=wrap;html=1;aspect=fixed;" vertex="1" parent="YYfMpNCJ1Z7KZMAcPr7d-1">
          <mxGeometry x="240" y="120" width="40" height="40" as="geometry" />
        </mxCell>
        <mxCell id="YYfMpNCJ1Z7KZMAcPr7d-7" value="33" style="whiteSpace=wrap;html=1;aspect=fixed;" vertex="1" parent="YYfMpNCJ1Z7KZMAcPr7d-1">
          <mxGeometry x="280" y="120" width="40" height="40" as="geometry" />
        </mxCell>
        <mxCell id="YYfMpNCJ1Z7KZMAcPr7d-8" value="42" style="whiteSpace=wrap;html=1;aspect=fixed;" vertex="1" parent="YYfMpNCJ1Z7KZMAcPr7d-1">
          <mxGeometry x="320" y="120" width="40" height="40" as="geometry" />
        </mxCell>
        <mxCell id="YYfMpNCJ1Z7KZMAcPr7d-9" value="11" style="whiteSpace=wrap;html=1;aspect=fixed;" vertex="1" parent="YYfMpNCJ1Z7KZMAcPr7d-1">
          <mxGeometry x="360" y="120" width="40" height="40" as="geometry" />
        </mxCell>
        <mxCell id="YYfMpNCJ1Z7KZMAcPr7d-10" value="8" style="whiteSpace=wrap;html=1;aspect=fixed;" vertex="1" parent="YYfMpNCJ1Z7KZMAcPr7d-1">
          <mxGeometry x="400" y="120" width="40" height="40" as="geometry" />
        </mxCell>
        <mxCell id="YYfMpNCJ1Z7KZMAcPr7d-11" value="9" style="whiteSpace=wrap;html=1;aspect=fixed;" vertex="1" parent="YYfMpNCJ1Z7KZMAcPr7d-1">
          <mxGeometry x="440" y="120" width="40" height="40" as="geometry" />
        </mxCell>
        <mxCell id="YYfMpNCJ1Z7KZMAcPr7d-12" value="Tamanha = 10" style="text;html=1;align=center;verticalAlign=middle;resizable=0;points=[];autosize=1;strokeColor=none;fillColor=none;" vertex="1" parent="YYfMpNCJ1Z7KZMAcPr7d-1">
          <mxGeometry x="30" y="10" width="100" height="30" as="geometry" />
        </mxCell>
        <mxCell id="YYfMpNCJ1Z7KZMAcPr7d-13" value="Fórmula hash: %10 (mod)" style="text;html=1;align=center;verticalAlign=middle;resizable=0;points=[];autosize=1;strokeColor=none;fillColor=none;" vertex="1" parent="YYfMpNCJ1Z7KZMAcPr7d-1">
          <mxGeometry x="160" y="10" width="160" height="30" as="geometry" />
        </mxCell>
        <mxCell id="YYfMpNCJ1Z7KZMAcPr7d-14" value="0" style="text;html=1;align=center;verticalAlign=middle;resizable=0;points=[];autosize=1;strokeColor=none;fillColor=none;" vertex="1" parent="YYfMpNCJ1Z7KZMAcPr7d-1">
          <mxGeometry x="85" y="90" width="30" height="30" as="geometry" />
        </mxCell>
        <mxCell id="YYfMpNCJ1Z7KZMAcPr7d-15" value="1" style="text;html=1;align=center;verticalAlign=middle;resizable=0;points=[];autosize=1;strokeColor=none;fillColor=none;" vertex="1" parent="YYfMpNCJ1Z7KZMAcPr7d-1">
          <mxGeometry x="125" y="90" width="30" height="30" as="geometry" />
        </mxCell>
        <mxCell id="YYfMpNCJ1Z7KZMAcPr7d-16" value="2" style="text;html=1;align=center;verticalAlign=middle;resizable=0;points=[];autosize=1;strokeColor=none;fillColor=none;" vertex="1" parent="YYfMpNCJ1Z7KZMAcPr7d-1">
          <mxGeometry x="165" y="90" width="30" height="30" as="geometry" />
        </mxCell>
        <mxCell id="YYfMpNCJ1Z7KZMAcPr7d-17" value="3" style="text;html=1;align=center;verticalAlign=middle;resizable=0;points=[];autosize=1;strokeColor=none;fillColor=none;" vertex="1" parent="YYfMpNCJ1Z7KZMAcPr7d-1">
          <mxGeometry x="205" y="90" width="30" height="30" as="geometry" />
        </mxCell>
        <mxCell id="YYfMpNCJ1Z7KZMAcPr7d-18" value="4" style="text;html=1;align=center;verticalAlign=middle;resizable=0;points=[];autosize=1;strokeColor=none;fillColor=none;" vertex="1" parent="YYfMpNCJ1Z7KZMAcPr7d-1">
          <mxGeometry x="245" y="90" width="30" height="30" as="geometry" />
        </mxCell>
        <mxCell id="YYfMpNCJ1Z7KZMAcPr7d-19" value="5" style="text;html=1;align=center;verticalAlign=middle;resizable=0;points=[];autosize=1;strokeColor=none;fillColor=none;" vertex="1" parent="YYfMpNCJ1Z7KZMAcPr7d-1">
          <mxGeometry x="285" y="90" width="30" height="30" as="geometry" />
        </mxCell>
        <mxCell id="YYfMpNCJ1Z7KZMAcPr7d-20" value="6" style="text;html=1;align=center;verticalAlign=middle;resizable=0;points=[];autosize=1;strokeColor=none;fillColor=none;" vertex="1" parent="YYfMpNCJ1Z7KZMAcPr7d-1">
          <mxGeometry x="325" y="90" width="30" height="30" as="geometry" />
        </mxCell>
        <mxCell id="YYfMpNCJ1Z7KZMAcPr7d-21" value="7" style="text;html=1;align=center;verticalAlign=middle;resizable=0;points=[];autosize=1;strokeColor=none;fillColor=none;" vertex="1" parent="YYfMpNCJ1Z7KZMAcPr7d-1">
          <mxGeometry x="365" y="90" width="30" height="30" as="geometry" />
        </mxCell>
        <mxCell id="YYfMpNCJ1Z7KZMAcPr7d-22" value="8" style="text;html=1;align=center;verticalAlign=middle;resizable=0;points=[];autosize=1;strokeColor=none;fillColor=none;" vertex="1" parent="YYfMpNCJ1Z7KZMAcPr7d-1">
          <mxGeometry x="405" y="90" width="30" height="30" as="geometry" />
        </mxCell>
        <mxCell id="YYfMpNCJ1Z7KZMAcPr7d-23" value="9" style="text;html=1;align=center;verticalAlign=middle;resizable=0;points=[];autosize=1;strokeColor=none;fillColor=none;" vertex="1" parent="YYfMpNCJ1Z7KZMAcPr7d-1">
          <mxGeometry x="445" y="90" width="30" height="30" as="geometry" />
        </mxCell>
      </root>
    </mxGraphModel>
  </diagram>
</mxfile>
